<svg xmlns="http://www.w3.org/2000/svg" viewBox="0 0 760 180" role="img" aria-labelledby="title desc" shape-rendering="geometricPrecision">
  <title id="title">IROA horizontal mono lockup</title>
  <desc id="desc">The unchanged selected open-loop symbol and iroa.ai wordmark, separated by one 24-unit symbol-stroke clear space.</desc>
  <g transform="translate(0 10)"><path xmlns:ns0="http://www.w3.org/2000/svg" d="M116.770 49.147A48 48 0 1 0 116.770 110.853" fill="none" stroke="#19222E" stroke-width="24" stroke-linecap="round" />
  
  <circle xmlns:ns0="http://www.w3.org/2000/svg" cx="128" cy="80" r="10.5" fill="#19222E" />
</g>
  <g transform="translate(160 0)"><g xmlns:ns0="http://www.w3.org/2000/svg" fill="none" stroke="#19222E" stroke-width="22" stroke-linecap="round" stroke-linejoin="round">
    <path d="M48 72V132" />
    <path d="M105 132V75M105 91C116 72 139 68 157 80" />
    <path d="M387 96A36 36 0 1 1 351 60A36 36 0 0 1 387 96V132" />
  </g>
  
  <circle xmlns:ns0="http://www.w3.org/2000/svg" cx="48" cy="41.5" r="10.5" fill="#19222E" />
  
  <g xmlns:ns0="http://www.w3.org/2000/svg" transform="translate(166 29.5) scale(.8)">
    <path d="M116.770 49.147A48 48 0 1 0 116.770 110.853" fill="none" stroke="#19222E" stroke-width="27.5" stroke-linecap="round" />
    <circle cx="128" cy="80" r="10.5" fill="#19222E" />
  </g>
  
  <g xmlns:ns0="http://www.w3.org/2000/svg" fill="#19222E" stroke="#19222E" stroke-linecap="round" stroke-linejoin="round">
    <circle cx="438" cy="132" r="7.5" stroke="none" />
    <path d="M511.5 110A25.5 25.5 0 1 1 486 84.5A25.5 25.5 0 0 1 511.5 110V135.5" fill="none" stroke-width="14" />
    <path d="M552 91V135.5" fill="none" stroke-width="14" />
    <circle cx="552" cy="68" r="7.5" stroke="none" />
  </g>
</g>
</svg>
