<svg xmlns="http://www.w3.org/2000/svg" viewBox="0 0 436 96" role="img" aria-labelledby="track-b-wordmark-title track-b-wordmark-desc">
  <title id="track-b-wordmark-title">iroa.ai Track B relay step wordmark</title>
  <desc id="track-b-wordmark-desc">The exact iroa.ai name drawn in custom unicase forms with fused i heads and offset counter steps.</desc>
  <g fill="#4A3652" fill-rule="evenodd">
    <path d="M10 12H34V19C34 22 32 25 29 26V76H15V26C12 25 10 22 10 19Z"/>
    <path d="M48 76V12H75C90 12 100 22 100 36C100 46 94 54 85 58H80L86 64L98 76H78L66 61H64V76ZM64 27H75C82 27 86 31 86 37C86 43 82 47 76 47H72V52H64Z"/>
    <path d="M144 10C124 10 112 23 112 44C112 65 124 78 144 78C164 78 176 64 176 44C176 23 164 10 144 10ZM144 27C134 27 128 34 128 44C128 54 134 61 143 62H148V57H152C157 54 160 49 160 44C160 34 154 27 144 27Z"/>
    <path d="M190 76L212 17C215 9 220 6 227 6C234 6 239 10 242 18L264 76H244L239 61H213L208 76ZM218 47H225V53H234L226 27Z"/>
    <path d="M278 62H292V76H278Z"/>
    <path d="M306 76L328 17C331 9 336 6 343 6C350 6 355 10 358 18L380 76H360L355 61H329L324 76ZM334 47H341V53H350L342 27Z"/>
    <path d="M394 12H418V19C418 22 416 25 413 26V76H399V26C396 25 394 22 394 19Z"/>
  </g>
</svg>
